# xmcd
# Track frame offsets:
# 150
# 14012
# 34092
# 54192
# 69122
# 80942
# 100510
# 116215
# 131495
# 147085
# 166805
# 183387
# 201565
#
# Disc length: 2933 seconds
# Revision: 0
# Processed by: cddbd v1.5.1PL0 Copyright (c) Steve Scherf et al.
# Submitted via: VisiTrax 2.9.10.228 - For more info visit www.synapsa.com
#
DISCID=b20b730d
DTITLE=Wendy Manley - Indigo Blue
DYEAR=2002
DGENRE=
TTITLE0=Hang On
TTITLE1=Rollin Wave
TTITLE2=Just Listen
TTITLE3=Indigo Blue
TTITLE4=Solitude
TTITLE5=Mobile
TTITLE6=My Souvenir
TTITLE7=Strong Strong Arms
TTITLE8=Puttin' Of the Blues
TTITLE9=A Burger and Fries
TTITLE10=I Guess I Knew
TTITLE11=Where the Sidewalk Ends
TTITLE12=Seeds
EXTD=Most songs by John P Nelson
EXTT0=
EXTT1=
EXTT2=
EXTT3=
EXTT4=
EXTT5=
EXTT6=
EXTT7=
EXTT8=
EXTT9=
EXTT10=
EXTT11=
EXTT12=
PLAYORDER=
